<?xml version="1.0" ?><svg viewBox="0 0 512 512" xmlns="http://www.w3.org/2000/svg"><g data-name="/ OUTLINE" id="_OUTLINE"><path d="M448,268.15918V40a24.0275,24.0275,0,0,0-24-24H88A24.0275,24.0275,0,0,0,64,40V472a24.0275,24.0275,0,0,0,24,24H368a127.94654,127.94654,0,0,0,80-227.84082ZM88,480a8.00917,8.00917,0,0,1-8-8V40a8.00917,8.00917,0,0,1,8-8H424a8.00917,8.00917,0,0,1,8,8V257.18286a127.5495,127.5495,0,0,0-16-7.83472V48H96V464H283.43591a128.61719,128.61719,0,0,0,22.65784,16ZM249.348,320H144V160H368v80A128.199,128.199,0,0,0,249.348,320ZM128,144V336H244.04993A127.9114,127.9114,0,0,0,268.1593,448H112V64H400V244.0498a127.16158,127.16158,0,0,0-16-3.05175V144ZM368,480A112,112,0,1,1,480,368,112.12706,112.12706,0,0,1,368,480Z"/><path d="M408,340a36,36,0,0,0-72,0v12h16V340a20,20,0,0,1,40,0v.40234a19.869,19.869,0,0,1-5.85791,14.14161l-11.1123,11.1123A23.84385,23.84385,0,0,0,368,382.627V400h16V382.627a7.94524,7.94524,0,0,1,2.34326-5.65625l11.11231-11.1123A35.76394,35.76394,0,0,0,408,340.40234Z"/><rect height="16" width="16" x="368" y="416"/><path d="M376,272h-8a72.08241,72.08241,0,0,0-71.98291,70.416l-14.896,37.24023A8.99964,8.99964,0,0,0,289.47705,392H304v16a24.0275,24.0275,0,0,0,24,24,8.00917,8.00917,0,0,1,8,8v16h16V440a24.02718,24.02718,0,0,0-24-24,8.00917,8.00917,0,0,1-8-8V376H299.81641L312,345.541V344a56.06322,56.06322,0,0,1,56-56h8a56.06322,56.06322,0,0,1,56,56v5.49023a55.63347,55.63347,0,0,1-16.40234,39.59864A52.90678,52.90678,0,0,0,400,426.74512V456h16V426.74512a37.01091,37.01091,0,0,1,10.91162-26.34278A71.52767,71.52767,0,0,0,448,349.49023V344A72.08124,72.08124,0,0,0,376,272Z"/><path d="M152,80a24,24,0,1,0,24,24A24.02718,24.02718,0,0,0,152,80Zm0,32a8,8,0,1,1,8-8A8.00917,8.00917,0,0,1,152,112Z"/><rect height="16" width="64" x="192" y="96"/><path d="M252.23358,223.08032l17.42316-17.42309-11.31348-11.31446-15.783,15.783A39.90465,39.90465,0,0,0,224,200.80493V184H208v16.80493a39.77174,39.77174,0,0,0-14.04211,5.83911l-12.30115-12.30127-11.31348,11.31446L182.64392,217.958a39.77333,39.77333,0,0,0-5.839,14.042H160v16h16.80493a39.77333,39.77333,0,0,0,5.839,14.042l-12.30066,12.30078,11.31348,11.31446L193.95789,273.356A39.77174,39.77174,0,0,0,208,279.19507V296h16V279.19507a39.77174,39.77174,0,0,0,14.04211-5.83911l12.30115,12.30127,11.31348-11.31446L249.35608,262.042a39.77333,39.77333,0,0,0,5.839-14.042H272V232H255.19507A39.66254,39.66254,0,0,0,252.23358,223.08032ZM216,264a24,24,0,1,1,24-24A24.0275,24.0275,0,0,1,216,264Z"/><rect height="16" width="96" x="128" y="352"/><rect height="16" width="96" x="128" y="384"/><rect height="16" width="104" x="128" y="416"/><path d="M312,240a24,24,0,1,0-24-24A24.02718,24.02718,0,0,0,312,240Zm0-32a8,8,0,1,1-8,8A8.00917,8.00917,0,0,1,312,208Z"/><rect height="16" width="16" x="336" y="176"/><rect height="16" width="16" x="368" y="96"/><rect height="16" width="16" x="336" y="96"/></g></svg>