<?xml version="1.0" ?><svg viewBox="0 0 64 64" xmlns="http://www.w3.org/2000/svg"><g data-name="Health Education-Article-Smartphone-Knowledge-Blog" id="Health_Education-Article-Smartphone-Knowledge-Blog"><rect height="16" width="2" x="12" y="18"/><path d="M50,56a4,4,0,0,1-4,4H18a4,4,0,0,1-4-4V40H12V56a6.006,6.006,0,0,0,6,6H46a6.006,6.006,0,0,0,6-6V40H50Z"/><rect height="16" width="2" x="50" y="18"/><path d="M14,8a4,4,0,0,1,4-4H46a4,4,0,0,1,4,4v4h2V8a6.006,6.006,0,0,0-6-6H18a6.006,6.006,0,0,0-6,6v4h2Z"/><path d="M30,52a3,3,0,0,0,0,6h4a3,3,0,0,0,0-6Zm5,3a1,1,0,0,1-1,1H30a1,1,0,0,1,0-2h4A1,1,0,0,1,35,55Z"/><rect height="2" width="2" x="25" y="6"/><rect height="2" width="6" x="29" y="6"/><path d="M37.91,31h2.368a2,2,0,1,0,0-2H37.91a5.964,5.964,0,0,0-1.025-2.471l1.676-1.676a2.016,2.016,0,0,0,.51.075,2.005,2.005,0,1,0-1.924-1.489l-1.676,1.676A5.964,5.964,0,0,0,33,24.09V21.722a2,2,0,1,0-2,0V24.09a5.964,5.964,0,0,0-2.471,1.025l-1.676-1.676a1.992,1.992,0,1,0-1.924,1.489,2.016,2.016,0,0,0,.51-.075l1.676,1.676A5.964,5.964,0,0,0,26.09,29H23.722a2,2,0,1,0,0,2H26.09a5.964,5.964,0,0,0,1.025,2.471l-1.676,1.676a2,2,0,1,0,1.414,1.414l1.676-1.676A5.964,5.964,0,0,0,31,35.91v2.368a2,2,0,1,0,2,0V35.91a5.964,5.964,0,0,0,2.471-1.025l1.676,1.676a2,2,0,1,0,1.414-1.414l-1.676-1.676A5.964,5.964,0,0,0,37.91,31ZM32,34a3.947,3.947,0,0,1-2.019-.567l.726-.726-1.414-1.414-.726.726a3.878,3.878,0,0,1,0-4.038l.726.726,1.414-1.414-.726-.726a3.878,3.878,0,0,1,4.038,0l-.726.726,1.414,1.414.726-.726a3.878,3.878,0,0,1,0,4.038l-.726-.726-1.414,1.414.726.726A3.947,3.947,0,0,1,32,34Z"/><rect height="2" width="2" x="31" y="29"/><path d="M46.293,14.293l-4,4,1.414,1.414L47.414,16H54V14H47A1,1,0,0,0,46.293,14.293Z"/><rect height="2" width="6" x="56" y="14"/><rect height="2" width="6" x="56" y="18"/><rect height="2" width="9" x="45" y="36"/><rect height="2" width="6" x="56" y="36"/><rect height="2" width="6" x="56" y="40"/><path d="M20.293,19.707l1.414-1.414-4-4A1,1,0,0,0,17,14H10v2h6.586Z"/><rect height="2" width="6" x="2" y="14"/><rect height="2" width="6" x="2" y="18"/><rect height="2" width="9" x="10" y="36"/><rect height="2" width="6" x="2" y="36"/><rect height="2" width="6" x="2" y="40"/></g></svg>